@startuml
class NavMeshModifier {
    + overrideArea : bool <<get>> <<set>>
    + area : int <<get>> <<set>>
    + ignoreFromBuild : bool <<get>> <<set>>
    + AffectsAgentType(agentTypeID:int) : bool
}
class "List`1"<T> {
}
MonoBehaviour <|-- NavMeshModifier
NavMeshModifier --> "activeModifiers<NavMeshModifier>" "List`1"
@enduml
